<svg width="48" height="50" viewBox="0 0 48 50" fill="none" xmlns="http://www.w3.org/2000/svg">
<path d="M20 5.75C19.59 5.75 19.25 5.41 19.25 5V2C19.25 1.59 19.59 1.25 20 1.25C20.41 1.25 20.75 1.59 20.75 2V5C20.75 5.41 20.41 5.75 20 5.75Z" fill="white" fill-opacity="0.98"/>
<path d="M28 5.75C27.59 5.75 27.25 5.41 27.25 5V2C27.25 1.59 27.59 1.25 28 1.25C28.41 1.25 28.75 1.59 28.75 2V5C28.75 5.41 28.41 5.75 28 5.75Z" fill="white" fill-opacity="0.98"/>
<path d="M20.5 14.5001C20.37 14.5001 20.24 14.4701 20.12 14.4201C19.99 14.3701 19.89 14.3001 19.79 14.2101C19.61 14.0201 19.5 13.7701 19.5 13.5001C19.5 13.3701 19.53 13.2401 19.58 13.1201C19.63 13.0001 19.7 12.8901 19.79 12.7901C19.89 12.7001 19.99 12.6301 20.12 12.5801C20.48 12.4301 20.93 12.5101 21.21 12.7901C21.39 12.9801 21.5 13.2401 21.5 13.5001C21.5 13.5601 21.49 13.6301 21.48 13.7001C21.47 13.7601 21.45 13.8201 21.42 13.8801C21.4 13.9401 21.37 14.0001 21.33 14.0601C21.3 14.1101 21.25 14.1601 21.21 14.2101C21.02 14.3901 20.76 14.5001 20.5 14.5001Z" fill="white" fill-opacity="0.98"/>
<path d="M24 14.4999C23.87 14.4999 23.74 14.4699 23.62 14.4199C23.49 14.3699 23.39 14.2999 23.29 14.2099C23.11 14.0199 23 13.7699 23 13.4999C23 13.3699 23.03 13.2399 23.08 13.1199C23.13 12.9999 23.2 12.8899 23.29 12.7899C23.39 12.6999 23.49 12.6299 23.62 12.5799C23.98 12.4199 24.43 12.5099 24.71 12.7899C24.89 12.9799 25 13.2399 25 13.4999C25 13.5599 24.99 13.6299 24.98 13.6999C24.97 13.7599 24.95 13.8199 24.92 13.8799C24.9 13.9399 24.87 13.9999 24.83 14.0599C24.8 14.1099 24.75 14.1599 24.71 14.2099C24.52 14.3899 24.26 14.4999 24 14.4999Z" fill="white" fill-opacity="0.98"/>
<path d="M27.5 14.4999C27.37 14.4999 27.24 14.4699 27.12 14.4199C26.99 14.3699 26.89 14.2999 26.79 14.2099C26.75 14.1599 26.71 14.1099 26.67 14.0599C26.63 13.9999 26.6 13.9399 26.58 13.8799C26.55 13.8199 26.53 13.7599 26.52 13.6999C26.51 13.6299 26.5 13.5599 26.5 13.4999C26.5 13.2399 26.61 12.9799 26.79 12.7899C26.89 12.6999 26.99 12.6299 27.12 12.5799C27.49 12.4199 27.93 12.5099 28.21 12.7899C28.39 12.9799 28.5 13.2399 28.5 13.4999C28.5 13.5599 28.49 13.6299 28.48 13.6999C28.47 13.7599 28.45 13.8199 28.42 13.8799C28.4 13.9399 28.37 13.9999 28.33 14.0599C28.3 14.1099 28.25 14.1599 28.21 14.2099C28.02 14.3899 27.76 14.4999 27.5 14.4999Z" fill="white" fill-opacity="0.98"/>
<path d="M20.5 17.9999C20.37 17.9999 20.24 17.97 20.12 17.92C20 17.87 19.89 17.7999 19.79 17.7099C19.61 17.5199 19.5 17.2599 19.5 16.9999C19.5 16.8699 19.53 16.7399 19.58 16.6199C19.63 16.4899 19.7 16.38 19.79 16.29C20.16 15.92 20.84 15.92 21.21 16.29C21.39 16.48 21.5 16.7399 21.5 16.9999C21.5 17.2599 21.39 17.5199 21.21 17.7099C21.02 17.8899 20.76 17.9999 20.5 17.9999Z" fill="white" fill-opacity="0.98"/>
<path d="M24 17.9999C23.74 17.9999 23.48 17.8899 23.29 17.7099C23.11 17.5199 23 17.2599 23 16.9999C23 16.8699 23.03 16.7399 23.08 16.6199C23.13 16.4899 23.2 16.38 23.29 16.29C23.66 15.92 24.34 15.92 24.71 16.29C24.8 16.38 24.87 16.4899 24.92 16.6199C24.97 16.7399 25 16.8699 25 16.9999C25 17.2599 24.89 17.5199 24.71 17.7099C24.52 17.8899 24.26 17.9999 24 17.9999Z" fill="white" fill-opacity="0.98"/>
<path d="M27.5 17.9999C27.24 17.9999 26.98 17.8899 26.79 17.7099C26.7 17.6199 26.63 17.5099 26.58 17.3799C26.53 17.2599 26.5 17.1299 26.5 16.9999C26.5 16.8699 26.53 16.7399 26.58 16.6199C26.63 16.4899 26.7 16.3799 26.79 16.2899C27.02 16.0599 27.37 15.9499 27.69 16.0199C27.76 16.0299 27.82 16.0499 27.88 16.0799C27.94 16.0999 28 16.1299 28.06 16.1699C28.11 16.1999 28.16 16.2499 28.21 16.2899C28.39 16.4799 28.5 16.7399 28.5 16.9999C28.5 17.2599 28.39 17.5199 28.21 17.7099C28.02 17.8899 27.76 17.9999 27.5 17.9999Z" fill="white" fill-opacity="0.98"/>
<path d="M32.5 9.83984H15.5C15.09 9.83984 14.75 9.49984 14.75 9.08984C14.75 8.67984 15.09 8.33984 15.5 8.33984H32.5C32.91 8.33984 33.25 8.67984 33.25 9.08984C33.25 9.49984 32.91 9.83984 32.5 9.83984Z" fill="white" fill-opacity="0.98"/>
<path d="M28 22.75H20C16.35 22.75 14.25 20.65 14.25 17V8.5C14.25 4.85 16.35 2.75 20 2.75H28C31.65 2.75 33.75 4.85 33.75 8.5V17C33.75 20.65 31.65 22.75 28 22.75ZM20 4.25C17.14 4.25 15.75 5.64 15.75 8.5V17C15.75 19.86 17.14 21.25 20 21.25H28C30.86 21.25 32.25 19.86 32.25 17V8.5C32.25 5.64 30.86 4.25 28 4.25H20Z" fill="white" fill-opacity="0.98"/>
<path d="M7.134 44.224C7.198 44.224 7.254 44.25 7.302 44.302L7.764 44.8C7.412 45.208 6.984 45.526 6.48 45.754C5.98 45.982 5.374 46.096 4.662 46.096C4.046 46.096 3.486 45.99 2.982 45.778C2.478 45.562 2.048 45.262 1.692 44.878C1.336 44.49 1.06 44.026 0.864 43.486C0.668 42.946 0.57 42.352 0.57 41.704C0.57 41.056 0.672 40.462 0.876 39.922C1.08 39.382 1.366 38.918 1.734 38.53C2.106 38.142 2.55 37.842 3.066 37.63C3.582 37.414 4.152 37.306 4.776 37.306C5.388 37.306 5.928 37.404 6.396 37.6C6.864 37.796 7.276 38.062 7.632 38.398L7.248 38.932C7.224 38.972 7.192 39.006 7.152 39.034C7.116 39.058 7.066 39.07 7.002 39.07C6.93 39.07 6.842 39.032 6.738 38.956C6.634 38.876 6.498 38.788 6.33 38.692C6.162 38.596 5.952 38.51 5.7 38.434C5.448 38.354 5.138 38.314 4.77 38.314C4.326 38.314 3.92 38.392 3.552 38.548C3.184 38.7 2.866 38.922 2.598 39.214C2.334 39.506 2.128 39.862 1.98 40.282C1.832 40.702 1.758 41.176 1.758 41.704C1.758 42.24 1.834 42.718 1.986 43.138C2.142 43.558 2.352 43.914 2.616 44.206C2.884 44.494 3.198 44.714 3.558 44.866C3.922 45.018 4.314 45.094 4.734 45.094C4.99 45.094 5.22 45.08 5.424 45.052C5.632 45.02 5.822 44.972 5.994 44.908C6.17 44.844 6.332 44.764 6.48 44.668C6.632 44.568 6.782 44.45 6.93 44.314C6.998 44.254 7.066 44.224 7.134 44.224ZM12.1556 43.264C11.6636 43.28 11.2436 43.32 10.8956 43.384C10.5516 43.444 10.2696 43.524 10.0496 43.624C9.83363 43.724 9.67563 43.842 9.57563 43.978C9.47963 44.114 9.43163 44.266 9.43163 44.434C9.43163 44.594 9.45763 44.732 9.50963 44.848C9.56163 44.964 9.63163 45.06 9.71963 45.136C9.81163 45.208 9.91763 45.262 10.0376 45.298C10.1616 45.33 10.2936 45.346 10.4336 45.346C10.6216 45.346 10.7936 45.328 10.9496 45.292C11.1056 45.252 11.2516 45.196 11.3876 45.124C11.5276 45.052 11.6596 44.966 11.7836 44.866C11.9116 44.766 12.0356 44.652 12.1556 44.524V43.264ZM8.70563 40.78C9.04163 40.456 9.40363 40.214 9.79163 40.054C10.1796 39.894 10.6096 39.814 11.0816 39.814C11.4216 39.814 11.7236 39.87 11.9876 39.982C12.2516 40.094 12.4736 40.25 12.6536 40.45C12.8336 40.65 12.9696 40.892 13.0616 41.176C13.1536 41.46 13.1996 41.772 13.1996 42.112V46H12.7256C12.6216 46 12.5416 45.984 12.4856 45.952C12.4296 45.916 12.3856 45.848 12.3536 45.748L12.2336 45.172C12.0736 45.32 11.9176 45.452 11.7656 45.568C11.6136 45.68 11.4536 45.776 11.2856 45.856C11.1176 45.932 10.9376 45.99 10.7456 46.03C10.5576 46.074 10.3476 46.096 10.1156 46.096C9.87963 46.096 9.65763 46.064 9.44963 46C9.24163 45.932 9.05963 45.832 8.90363 45.7C8.75163 45.568 8.62963 45.402 8.53763 45.202C8.44963 44.998 8.40563 44.758 8.40563 44.482C8.40563 44.242 8.47163 44.012 8.60363 43.792C8.73563 43.568 8.94963 43.37 9.24563 43.198C9.54163 43.026 9.92763 42.886 10.4036 42.778C10.8796 42.666 11.4636 42.602 12.1556 42.586V42.112C12.1556 41.64 12.0536 41.284 11.8496 41.044C11.6456 40.8 11.3476 40.678 10.9556 40.678C10.6916 40.678 10.4696 40.712 10.2896 40.78C10.1136 40.844 9.95963 40.918 9.82763 41.002C9.69963 41.082 9.58763 41.156 9.49163 41.224C9.39963 41.288 9.30763 41.32 9.21563 41.32C9.14363 41.32 9.08163 41.302 9.02963 41.266C8.97763 41.226 8.93363 41.178 8.89762 41.122L8.70563 40.78ZM15.9305 37.162V46H14.8625V37.162H15.9305ZM21.7304 42.298C21.7304 42.05 21.6944 41.824 21.6224 41.62C21.5544 41.412 21.4524 41.234 21.3164 41.086C21.1844 40.934 21.0224 40.818 20.8304 40.738C20.6384 40.654 20.4204 40.612 20.1764 40.612C19.6644 40.612 19.2584 40.762 18.9584 41.062C18.6624 41.358 18.4784 41.77 18.4064 42.298H21.7304ZM22.5944 45.148C22.4624 45.308 22.3044 45.448 22.1204 45.568C21.9364 45.684 21.7384 45.78 21.5264 45.856C21.3184 45.932 21.1024 45.988 20.8784 46.024C20.6544 46.064 20.4324 46.084 20.2124 46.084C19.7924 46.084 19.4044 46.014 19.0484 45.874C18.6964 45.73 18.3904 45.522 18.1304 45.25C17.8744 44.974 17.6744 44.634 17.5304 44.23C17.3864 43.826 17.3144 43.362 17.3144 42.838C17.3144 42.414 17.3784 42.018 17.5064 41.65C17.6384 41.282 17.8264 40.964 18.0704 40.696C18.3144 40.424 18.6124 40.212 18.9644 40.06C19.3164 39.904 19.7124 39.826 20.1524 39.826C20.5164 39.826 20.8524 39.888 21.1604 40.012C21.4724 40.132 21.7404 40.308 21.9644 40.54C22.1924 40.768 22.3704 41.052 22.4984 41.392C22.6264 41.728 22.6904 42.112 22.6904 42.544C22.6904 42.712 22.6724 42.824 22.6364 42.88C22.6004 42.936 22.5324 42.964 22.4324 42.964H18.3704C18.3824 43.348 18.4344 43.682 18.5264 43.966C18.6224 44.25 18.7544 44.488 18.9224 44.68C19.0904 44.868 19.2904 45.01 19.5224 45.106C19.7544 45.198 20.0144 45.244 20.3024 45.244C20.5704 45.244 20.8004 45.214 20.9924 45.154C21.1884 45.09 21.3564 45.022 21.4964 44.95C21.6364 44.878 21.7524 44.812 21.8444 44.752C21.9404 44.688 22.0224 44.656 22.0904 44.656C22.1784 44.656 22.2464 44.69 22.2944 44.758L22.5944 45.148ZM25.0103 40.804C25.1423 40.656 25.2823 40.522 25.4303 40.402C25.5783 40.282 25.7343 40.18 25.8983 40.096C26.0663 40.008 26.2423 39.942 26.4263 39.898C26.6143 39.85 26.8163 39.826 27.0323 39.826C27.3643 39.826 27.6563 39.882 27.9083 39.994C28.1643 40.102 28.3763 40.258 28.5443 40.462C28.7163 40.662 28.8463 40.904 28.9343 41.188C29.0223 41.472 29.0663 41.786 29.0663 42.13V46H27.9923V42.13C27.9923 41.67 27.8863 41.314 27.6743 41.062C27.4663 40.806 27.1483 40.678 26.7203 40.678C26.4043 40.678 26.1083 40.754 25.8323 40.906C25.5603 41.058 25.3083 41.264 25.0763 41.524V46H24.0023V39.922H24.6443C24.7963 39.922 24.8903 39.996 24.9263 40.144L25.0103 40.804ZM34.6537 41.368C34.4537 41.1 34.2377 40.914 34.0057 40.81C33.7737 40.702 33.5137 40.648 33.2257 40.648C32.6617 40.648 32.2277 40.85 31.9237 41.254C31.6197 41.658 31.4677 42.234 31.4677 42.982C31.4677 43.378 31.5017 43.718 31.5697 44.002C31.6377 44.282 31.7377 44.514 31.8697 44.698C32.0017 44.878 32.1637 45.01 32.3557 45.094C32.5477 45.178 32.7657 45.22 33.0097 45.22C33.3617 45.22 33.6677 45.14 33.9277 44.98C34.1917 44.82 34.4337 44.594 34.6537 44.302V41.368ZM35.7217 37.162V46H35.0857C34.9337 46 34.8377 45.926 34.7977 45.778L34.7017 45.04C34.4417 45.352 34.1457 45.604 33.8137 45.796C33.4817 45.988 33.0977 46.084 32.6617 46.084C32.3137 46.084 31.9977 46.018 31.7137 45.886C31.4297 45.75 31.1877 45.552 30.9877 45.292C30.7877 45.032 30.6337 44.708 30.5257 44.32C30.4177 43.932 30.3637 43.486 30.3637 42.982C30.3637 42.534 30.4237 42.118 30.5437 41.734C30.6637 41.346 30.8357 41.01 31.0597 40.726C31.2837 40.442 31.5577 40.22 31.8817 40.06C32.2097 39.896 32.5777 39.814 32.9857 39.814C33.3577 39.814 33.6757 39.878 33.9397 40.006C34.2077 40.13 34.4457 40.304 34.6537 40.528V37.162H35.7217ZM40.7025 43.264C40.2105 43.28 39.7905 43.32 39.4425 43.384C39.0985 43.444 38.8165 43.524 38.5965 43.624C38.3805 43.724 38.2225 43.842 38.1225 43.978C38.0265 44.114 37.9785 44.266 37.9785 44.434C37.9785 44.594 38.0045 44.732 38.0565 44.848C38.1085 44.964 38.1785 45.06 38.2665 45.136C38.3585 45.208 38.4645 45.262 38.5845 45.298C38.7085 45.33 38.8405 45.346 38.9805 45.346C39.1685 45.346 39.3405 45.328 39.4965 45.292C39.6525 45.252 39.7985 45.196 39.9345 45.124C40.0745 45.052 40.2065 44.966 40.3305 44.866C40.4585 44.766 40.5825 44.652 40.7025 44.524V43.264ZM37.2525 40.78C37.5885 40.456 37.9505 40.214 38.3385 40.054C38.7265 39.894 39.1565 39.814 39.6285 39.814C39.9685 39.814 40.2705 39.87 40.5345 39.982C40.7985 40.094 41.0205 40.25 41.2005 40.45C41.3805 40.65 41.5165 40.892 41.6085 41.176C41.7005 41.46 41.7465 41.772 41.7465 42.112V46H41.2725C41.1685 46 41.0885 45.984 41.0325 45.952C40.9765 45.916 40.9325 45.848 40.9005 45.748L40.7805 45.172C40.6205 45.32 40.4645 45.452 40.3125 45.568C40.1605 45.68 40.0005 45.776 39.8325 45.856C39.6645 45.932 39.4845 45.99 39.2925 46.03C39.1045 46.074 38.8945 46.096 38.6625 46.096C38.4265 46.096 38.2045 46.064 37.9965 46C37.7885 45.932 37.6065 45.832 37.4505 45.7C37.2985 45.568 37.1765 45.402 37.0845 45.202C36.9965 44.998 36.9525 44.758 36.9525 44.482C36.9525 44.242 37.0185 44.012 37.1505 43.792C37.2825 43.568 37.4965 43.37 37.7925 43.198C38.0885 43.026 38.4745 42.886 38.9505 42.778C39.4265 42.666 40.0105 42.602 40.7025 42.586V42.112C40.7025 41.64 40.6005 41.284 40.3965 41.044C40.1925 40.8 39.8945 40.678 39.5025 40.678C39.2385 40.678 39.0165 40.712 38.8365 40.78C38.6605 40.844 38.5065 40.918 38.3745 41.002C38.2465 41.082 38.1345 41.156 38.0385 41.224C37.9465 41.288 37.8545 41.32 37.7625 41.32C37.6905 41.32 37.6285 41.302 37.5765 41.266C37.5245 41.226 37.4805 41.178 37.4445 41.122L37.2525 40.78ZM44.3873 41.14C44.5793 40.724 44.8153 40.4 45.0953 40.168C45.3753 39.932 45.7173 39.814 46.1213 39.814C46.2493 39.814 46.3713 39.828 46.4873 39.856C46.6073 39.884 46.7133 39.928 46.8053 39.988L46.7273 40.786C46.7033 40.886 46.6433 40.936 46.5473 40.936C46.4913 40.936 46.4093 40.924 46.3013 40.9C46.1933 40.876 46.0713 40.864 45.9353 40.864C45.7433 40.864 45.5713 40.892 45.4193 40.948C45.2713 41.004 45.1373 41.088 45.0173 41.2C44.9013 41.308 44.7953 41.444 44.6993 41.608C44.6073 41.768 44.5233 41.952 44.4473 42.16V46H43.3733V39.922H43.9853C44.1013 39.922 44.1813 39.944 44.2253 39.988C44.2693 40.032 44.2993 40.108 44.3153 40.216L44.3873 41.14Z" fill="white" fill-opacity="0.98"/>
</svg>
