<svg width="48" height="50" viewBox="0 0 48 50" fill="none" xmlns="http://www.w3.org/2000/svg">
<path d="M25 22.75C19.07 22.75 14.25 17.93 14.25 12C14.25 6.07 19.07 1.25 25 1.25C30.93 1.25 35.75 6.07 35.75 12C35.75 17.93 30.93 22.75 25 22.75ZM25 2.75C19.9 2.75 15.75 6.9 15.75 12C15.75 17.1 19.9 21.25 25 21.25C30.1 21.25 34.25 17.1 34.25 12C34.25 6.9 30.1 2.75 25 2.75Z" fill="white" fill-opacity="0.98"/>
<path d="M28.7099 15.93C28.5799 15.93 28.4499 15.9 28.3299 15.82L25.2299 13.97C24.4599 13.51 23.8899 12.5 23.8899 11.61V7.51001C23.8899 7.10001 24.2299 6.76001 24.6399 6.76001C25.0499 6.76001 25.3899 7.10001 25.3899 7.51001V11.61C25.3899 11.97 25.6899 12.5 25.9999 12.68L29.0999 14.53C29.4599 14.74 29.5699 15.2 29.3599 15.56C29.2099 15.8 28.9599 15.93 28.7099 15.93Z" fill="white" fill-opacity="0.98"/>
<path d="M8.262 38.35V41.356H11.796V42.304H8.262V46H7.098V37.402H12.396V38.35H8.262ZM15.6658 39.826C16.1098 39.826 16.5098 39.9 16.8658 40.048C17.2218 40.196 17.5258 40.406 17.7778 40.678C18.0298 40.95 18.2218 41.28 18.3538 41.668C18.4898 42.052 18.5578 42.482 18.5578 42.958C18.5578 43.438 18.4898 43.87 18.3538 44.254C18.2218 44.638 18.0298 44.966 17.7778 45.238C17.5258 45.51 17.2218 45.72 16.8658 45.868C16.5098 46.012 16.1098 46.084 15.6658 46.084C15.2178 46.084 14.8138 46.012 14.4538 45.868C14.0978 45.72 13.7938 45.51 13.5418 45.238C13.2898 44.966 13.0958 44.638 12.9598 44.254C12.8278 43.87 12.7618 43.438 12.7618 42.958C12.7618 42.482 12.8278 42.052 12.9598 41.668C13.0958 41.28 13.2898 40.95 13.5418 40.678C13.7938 40.406 14.0978 40.196 14.4538 40.048C14.8138 39.9 15.2178 39.826 15.6658 39.826ZM15.6658 45.25C16.2658 45.25 16.7138 45.05 17.0098 44.65C17.3058 44.246 17.4538 43.684 17.4538 42.964C17.4538 42.24 17.3058 41.676 17.0098 41.272C16.7138 40.868 16.2658 40.666 15.6658 40.666C15.3618 40.666 15.0958 40.718 14.8678 40.822C14.6438 40.926 14.4558 41.076 14.3038 41.272C14.1558 41.468 14.0438 41.71 13.9678 41.998C13.8958 42.282 13.8598 42.604 13.8598 42.964C13.8598 43.684 14.0078 44.246 14.3038 44.65C14.6038 45.05 15.0578 45.25 15.6658 45.25ZM24.1424 41.002C24.1104 41.046 24.0784 41.08 24.0464 41.104C24.0144 41.128 23.9704 41.14 23.9144 41.14C23.8544 41.14 23.7884 41.116 23.7164 41.068C23.6444 41.016 23.5544 40.96 23.4464 40.9C23.3424 40.84 23.2124 40.786 23.0564 40.738C22.9044 40.686 22.7164 40.66 22.4924 40.66C22.1924 40.66 21.9284 40.714 21.7004 40.822C21.4724 40.926 21.2804 41.078 21.1244 41.278C20.9724 41.478 20.8564 41.72 20.7764 42.004C20.7004 42.288 20.6624 42.606 20.6624 42.958C20.6624 43.326 20.7044 43.654 20.7884 43.942C20.8724 44.226 20.9904 44.466 21.1424 44.662C21.2984 44.854 21.4844 45.002 21.7004 45.106C21.9204 45.206 22.1664 45.256 22.4384 45.256C22.6984 45.256 22.9124 45.226 23.0804 45.166C23.2484 45.102 23.3864 45.032 23.4944 44.956C23.6064 44.88 23.6984 44.812 23.7704 44.752C23.8464 44.688 23.9204 44.656 23.9924 44.656C24.0804 44.656 24.1484 44.69 24.1964 44.758L24.4964 45.148C24.3644 45.312 24.2144 45.452 24.0464 45.568C23.8784 45.684 23.6964 45.782 23.5004 45.862C23.3084 45.938 23.1064 45.994 22.8944 46.03C22.6824 46.066 22.4664 46.084 22.2464 46.084C21.8664 46.084 21.5124 46.014 21.1844 45.874C20.8604 45.734 20.5784 45.532 20.3384 45.268C20.0984 45 19.9104 44.672 19.7744 44.284C19.6384 43.896 19.5704 43.454 19.5704 42.958C19.5704 42.506 19.6324 42.088 19.7564 41.704C19.8844 41.32 20.0684 40.99 20.3084 40.714C20.5524 40.434 20.8504 40.216 21.2024 40.06C21.5584 39.904 21.9664 39.826 22.4264 39.826C22.8544 39.826 23.2304 39.896 23.5544 40.036C23.8824 40.172 24.1724 40.366 24.4244 40.618L24.1424 41.002ZM30.6409 39.922V46H30.0049C29.8529 46 29.7569 45.926 29.7169 45.778L29.6329 45.124C29.3689 45.416 29.0729 45.652 28.7449 45.832C28.4169 46.008 28.0409 46.096 27.6169 46.096C27.2849 46.096 26.9909 46.042 26.7349 45.934C26.4829 45.822 26.2709 45.666 26.0989 45.466C25.9269 45.266 25.7969 45.024 25.7089 44.74C25.6249 44.456 25.5829 44.142 25.5829 43.798V39.922H26.6509V43.798C26.6509 44.258 26.7549 44.614 26.9629 44.866C27.1749 45.118 27.4969 45.244 27.9289 45.244C28.2449 45.244 28.5389 45.17 28.8109 45.022C29.0869 44.87 29.3409 44.662 29.5729 44.398V39.922H30.6409ZM35.8743 40.924C35.8263 41.012 35.7523 41.056 35.6523 41.056C35.5923 41.056 35.5243 41.034 35.4483 40.99C35.3723 40.946 35.2783 40.898 35.1663 40.846C35.0583 40.79 34.9283 40.74 34.7763 40.696C34.6243 40.648 34.4443 40.624 34.2363 40.624C34.0563 40.624 33.8943 40.648 33.7503 40.696C33.6063 40.74 33.4823 40.802 33.3783 40.882C33.2783 40.962 33.2003 41.056 33.1443 41.164C33.0923 41.268 33.0663 41.382 33.0663 41.506C33.0663 41.662 33.1103 41.792 33.1983 41.896C33.2903 42 33.4103 42.09 33.5583 42.166C33.7063 42.242 33.8743 42.31 34.0623 42.37C34.2503 42.426 34.4423 42.488 34.6383 42.556C34.8383 42.62 35.0323 42.692 35.2203 42.772C35.4083 42.852 35.5763 42.952 35.7243 43.072C35.8723 43.192 35.9903 43.34 36.0783 43.516C36.1703 43.688 36.2163 43.896 36.2163 44.14C36.2163 44.42 36.1663 44.68 36.0663 44.92C35.9663 45.156 35.8183 45.362 35.6223 45.538C35.4263 45.71 35.1863 45.846 34.9023 45.946C34.6183 46.046 34.2903 46.096 33.9183 46.096C33.4943 46.096 33.1103 46.028 32.7663 45.892C32.4223 45.752 32.1303 45.574 31.8903 45.358L32.1423 44.95C32.1743 44.898 32.2123 44.858 32.2563 44.83C32.3003 44.802 32.3563 44.788 32.4243 44.788C32.4963 44.788 32.5723 44.816 32.6523 44.872C32.7323 44.928 32.8283 44.99 32.9403 45.058C33.0563 45.126 33.1963 45.188 33.3603 45.244C33.5243 45.3 33.7283 45.328 33.9723 45.328C34.1803 45.328 34.3623 45.302 34.5183 45.25C34.6743 45.194 34.8043 45.12 34.9083 45.028C35.0123 44.936 35.0883 44.83 35.1363 44.71C35.1883 44.59 35.2143 44.462 35.2143 44.326C35.2143 44.158 35.1683 44.02 35.0763 43.912C34.9883 43.8 34.8703 43.706 34.7223 43.63C34.5743 43.55 34.4043 43.482 34.2123 43.426C34.0243 43.366 33.8303 43.304 33.6303 43.24C33.4343 43.176 33.2403 43.104 33.0483 43.024C32.8603 42.94 32.6923 42.836 32.5443 42.712C32.3963 42.588 32.2763 42.436 32.1843 42.256C32.0963 42.072 32.0523 41.85 32.0523 41.59C32.0523 41.358 32.1003 41.136 32.1963 40.924C32.2923 40.708 32.4323 40.52 32.6163 40.36C32.8003 40.196 33.0263 40.066 33.2943 39.97C33.5623 39.874 33.8683 39.826 34.2123 39.826C34.6123 39.826 34.9703 39.89 35.2863 40.018C35.6063 40.142 35.8823 40.314 36.1143 40.534L35.8743 40.924ZM41.5937 42.298C41.5937 42.05 41.5577 41.824 41.4857 41.62C41.4177 41.412 41.3157 41.234 41.1797 41.086C41.0477 40.934 40.8857 40.818 40.6937 40.738C40.5017 40.654 40.2837 40.612 40.0397 40.612C39.5277 40.612 39.1217 40.762 38.8217 41.062C38.5257 41.358 38.3417 41.77 38.2697 42.298H41.5937ZM42.4577 45.148C42.3257 45.308 42.1677 45.448 41.9837 45.568C41.7997 45.684 41.6017 45.78 41.3897 45.856C41.1817 45.932 40.9657 45.988 40.7417 46.024C40.5177 46.064 40.2957 46.084 40.0757 46.084C39.6557 46.084 39.2677 46.014 38.9117 45.874C38.5597 45.73 38.2537 45.522 37.9937 45.25C37.7377 44.974 37.5377 44.634 37.3937 44.23C37.2497 43.826 37.1777 43.362 37.1777 42.838C37.1777 42.414 37.2417 42.018 37.3697 41.65C37.5017 41.282 37.6897 40.964 37.9337 40.696C38.1777 40.424 38.4757 40.212 38.8277 40.06C39.1797 39.904 39.5757 39.826 40.0157 39.826C40.3797 39.826 40.7157 39.888 41.0237 40.012C41.3357 40.132 41.6037 40.308 41.8277 40.54C42.0557 40.768 42.2337 41.052 42.3617 41.392C42.4897 41.728 42.5537 42.112 42.5537 42.544C42.5537 42.712 42.5357 42.824 42.4997 42.88C42.4637 42.936 42.3957 42.964 42.2957 42.964H38.2337C38.2457 43.348 38.2977 43.682 38.3897 43.966C38.4857 44.25 38.6177 44.488 38.7857 44.68C38.9537 44.868 39.1537 45.01 39.3857 45.106C39.6177 45.198 39.8777 45.244 40.1657 45.244C40.4337 45.244 40.6637 45.214 40.8557 45.154C41.0517 45.09 41.2197 45.022 41.3597 44.95C41.4997 44.878 41.6157 44.812 41.7077 44.752C41.8037 44.688 41.8857 44.656 41.9537 44.656C42.0417 44.656 42.1097 44.69 42.1577 44.758L42.4577 45.148Z" fill="white" fill-opacity="0.98"/>
</svg>
