<svg width="48" height="50" viewBox="0 0 48 50" fill="none" xmlns="http://www.w3.org/2000/svg">
<path d="M31.04 6.81994L25.28 2.78994C23.71 1.68994 21.3 1.74994 19.79 2.91994L14.78 6.82994C13.78 7.60994 12.99 9.20994 12.99 10.4699V17.3699C12.99 19.9199 15.06 21.9999 17.61 21.9999H28.39C30.94 21.9999 33.01 19.9299 33.01 17.3799V10.5999C33.01 9.24994 32.14 7.58994 31.04 6.81994ZM23.75 17.9999C23.75 18.4099 23.41 18.7499 23 18.7499C22.59 18.7499 22.25 18.4099 22.25 17.9999V14.9999C22.25 14.5899 22.59 14.2499 23 14.2499C23.41 14.2499 23.75 14.5899 23.75 14.9999V17.9999Z" fill="white" fill-opacity="0.87"/>
<path d="M10.262 46H9.098V37.402H10.262V46ZM13.1235 40.804C13.2555 40.656 13.3955 40.522 13.5435 40.402C13.6915 40.282 13.8475 40.18 14.0115 40.096C14.1795 40.008 14.3555 39.942 14.5395 39.898C14.7275 39.85 14.9295 39.826 15.1455 39.826C15.4775 39.826 15.7695 39.882 16.0215 39.994C16.2775 40.102 16.4895 40.258 16.6575 40.462C16.8295 40.662 16.9595 40.904 17.0475 41.188C17.1355 41.472 17.1795 41.786 17.1795 42.13V46H16.1055V42.13C16.1055 41.67 15.9995 41.314 15.7875 41.062C15.5795 40.806 15.2615 40.678 14.8335 40.678C14.5175 40.678 14.2215 40.754 13.9455 40.906C13.6735 41.058 13.4215 41.264 13.1895 41.524V46H12.1155V39.922H12.7575C12.9095 39.922 13.0035 39.996 13.0395 40.144L13.1235 40.804ZM22.7669 41.368C22.5669 41.1 22.3509 40.914 22.1189 40.81C21.8869 40.702 21.6269 40.648 21.3389 40.648C20.7749 40.648 20.3409 40.85 20.0369 41.254C19.7329 41.658 19.5809 42.234 19.5809 42.982C19.5809 43.378 19.6149 43.718 19.6829 44.002C19.7509 44.282 19.8509 44.514 19.9829 44.698C20.1149 44.878 20.2769 45.01 20.4689 45.094C20.6609 45.178 20.8789 45.22 21.1229 45.22C21.4749 45.22 21.7809 45.14 22.0409 44.98C22.3049 44.82 22.5469 44.594 22.7669 44.302V41.368ZM23.8349 37.162V46H23.1989C23.0469 46 22.9509 45.926 22.9109 45.778L22.8149 45.04C22.5549 45.352 22.2589 45.604 21.9269 45.796C21.5949 45.988 21.2109 46.084 20.7749 46.084C20.4269 46.084 20.1109 46.018 19.8269 45.886C19.5429 45.75 19.3009 45.552 19.1009 45.292C18.9009 45.032 18.7469 44.708 18.6389 44.32C18.5309 43.932 18.4769 43.486 18.4769 42.982C18.4769 42.534 18.5369 42.118 18.6569 41.734C18.7769 41.346 18.9489 41.01 19.1729 40.726C19.3969 40.442 19.6709 40.22 19.9949 40.06C20.3229 39.896 20.6909 39.814 21.0989 39.814C21.4709 39.814 21.7889 39.878 22.0529 40.006C22.3209 40.13 22.5589 40.304 22.7669 40.528V37.162H23.8349ZM29.5898 42.298C29.5898 42.05 29.5538 41.824 29.4818 41.62C29.4138 41.412 29.3118 41.234 29.1758 41.086C29.0438 40.934 28.8818 40.818 28.6898 40.738C28.4978 40.654 28.2798 40.612 28.0358 40.612C27.5238 40.612 27.1178 40.762 26.8178 41.062C26.5218 41.358 26.3378 41.77 26.2658 42.298H29.5898ZM30.4538 45.148C30.3218 45.308 30.1638 45.448 29.9798 45.568C29.7958 45.684 29.5978 45.78 29.3858 45.856C29.1778 45.932 28.9618 45.988 28.7378 46.024C28.5138 46.064 28.2918 46.084 28.0718 46.084C27.6518 46.084 27.2638 46.014 26.9078 45.874C26.5558 45.73 26.2498 45.522 25.9898 45.25C25.7338 44.974 25.5338 44.634 25.3898 44.23C25.2458 43.826 25.1738 43.362 25.1738 42.838C25.1738 42.414 25.2378 42.018 25.3658 41.65C25.4978 41.282 25.6858 40.964 25.9298 40.696C26.1738 40.424 26.4718 40.212 26.8238 40.06C27.1758 39.904 27.5718 39.826 28.0118 39.826C28.3758 39.826 28.7118 39.888 29.0198 40.012C29.3318 40.132 29.5998 40.308 29.8238 40.54C30.0518 40.768 30.2298 41.052 30.3578 41.392C30.4858 41.728 30.5498 42.112 30.5498 42.544C30.5498 42.712 30.5318 42.824 30.4958 42.88C30.4598 42.936 30.3918 42.964 30.2918 42.964H26.2298C26.2418 43.348 26.2938 43.682 26.3858 43.966C26.4818 44.25 26.6138 44.488 26.7818 44.68C26.9498 44.868 27.1498 45.01 27.3818 45.106C27.6138 45.198 27.8738 45.244 28.1618 45.244C28.4298 45.244 28.6598 45.214 28.8518 45.154C29.0478 45.09 29.2158 45.022 29.3558 44.95C29.4958 44.878 29.6118 44.812 29.7038 44.752C29.7998 44.688 29.8818 44.656 29.9498 44.656C30.0378 44.656 30.1058 44.69 30.1538 44.758L30.4538 45.148ZM36.7716 46H35.7456C35.6576 46 35.5876 45.978 35.5356 45.934C35.4876 45.886 35.4476 45.834 35.4156 45.778L33.8856 43.396C33.8696 43.452 33.8516 43.508 33.8316 43.564C33.8156 43.616 33.7916 43.664 33.7596 43.708L32.3436 45.778C32.3036 45.834 32.2596 45.886 32.2116 45.934C32.1676 45.978 32.1056 46 32.0256 46H31.0716L33.2016 42.88L31.1556 39.922H32.1816C32.2696 39.922 32.3336 39.936 32.3736 39.964C32.4136 39.992 32.4496 40.032 32.4816 40.084L33.9756 42.364C34.0076 42.248 34.0576 42.136 34.1256 42.028L35.4336 40.108C35.4696 40.052 35.5076 40.008 35.5476 39.976C35.5916 39.94 35.6436 39.922 35.7036 39.922H36.6876L34.6416 42.826L36.7716 46Z" fill="white" fill-opacity="0.87"/>
</svg>
